<mxfile host="65bd71144e">
    <diagram id="4ieY2Y0zyKkUKYyKJtT6" name="Page-1">
        <mxGraphModel dx="1840" dy="1251" grid="0" gridSize="10" guides="1" tooltips="1" connect="1" arrows="0" fold="1" page="0" pageScale="1" pageWidth="1500" pageHeight="200" background="#567999" math="0" shadow="0">
            <root>
                <mxCell id="0"/>
                <mxCell id="1" parent="0"/>
                <mxCell id="15" style="edgeStyle=none;html=1;entryX=0.5;entryY=0;entryDx=0;entryDy=0;strokeColor=none;fontFamily=Times New Roman;labelBorderColor=#1c1c1c;" edge="1" parent="1" source="2" target="14">
                    <mxGeometry relative="1" as="geometry"/>
                </mxCell>
                <mxCell id="16" style="edgeStyle=none;html=1;strokeColor=default;endArrow=none;endFill=0;fontFamily=Times New Roman;labelBorderColor=#1c1c1c;" edge="1" parent="1" source="2">
                    <mxGeometry relative="1" as="geometry">
                        <mxPoint x="643.5" y="313" as="targetPoint"/>
                    </mxGeometry>
                </mxCell>
                <mxCell id="2" value="&lt;font&gt;Login&lt;/font&gt;" style="whiteSpace=wrap;html=1;align=center;hachureGap=4;fontFamily=Times New Roman;fontSize=20;labelBorderColor=#1c1c1c;" parent="1" vertex="1">
                    <mxGeometry x="583.5" y="153" width="120" height="40" as="geometry"/>
                </mxCell>
                <mxCell id="5" value="#login_id" style="ellipse;whiteSpace=wrap;html=1;align=center;fontStyle=4;hachureGap=4;fontFamily=Times New Roman;fontSize=20;rotation=-45;labelBorderColor=#1c1c1c;" parent="1" vertex="1">
                    <mxGeometry x="483.5" y="73" width="100" height="50" as="geometry"/>
                </mxCell>
                <mxCell id="6" value="Attribute" style="ellipse;whiteSpace=wrap;html=1;align=center;hachureGap=4;fontFamily=Times New Roman;fontSize=20;labelBorderColor=#1c1c1c;" parent="1" vertex="1">
                    <mxGeometry x="543.5" y="13" width="100" height="40" as="geometry"/>
                </mxCell>
                <mxCell id="7" value="Attribute" style="ellipse;whiteSpace=wrap;html=1;align=center;hachureGap=4;fontFamily=Times New Roman;fontSize=20;rotation=0;labelBorderColor=#1c1c1c;" parent="1" vertex="1">
                    <mxGeometry x="653.5" y="13" width="100" height="40" as="geometry"/>
                </mxCell>
                <mxCell id="8" value="Attribute" style="ellipse;whiteSpace=wrap;html=1;align=center;hachureGap=4;fontFamily=Times New Roman;fontSize=20;rotation=45;labelBorderColor=#1c1c1c;" parent="1" vertex="1">
                    <mxGeometry x="693.5" y="83" width="100" height="40" as="geometry"/>
                </mxCell>
                <mxCell id="10" value="" style="endArrow=none;html=1;rounded=0;exitX=0.5;exitY=1;exitDx=0;exitDy=0;entryX=0;entryY=0;entryDx=0;entryDy=0;fontFamily=Times New Roman;labelBorderColor=#1c1c1c;" edge="1" parent="1" source="5" target="2">
                    <mxGeometry relative="1" as="geometry">
                        <mxPoint x="573.5" y="163" as="sourcePoint"/>
                        <mxPoint x="733.5" y="163" as="targetPoint"/>
                    </mxGeometry>
                </mxCell>
                <mxCell id="11" value="" style="endArrow=none;html=1;rounded=0;exitX=0.5;exitY=1;exitDx=0;exitDy=0;entryX=0.25;entryY=0;entryDx=0;entryDy=0;fontFamily=Times New Roman;labelBorderColor=#1c1c1c;" edge="1" parent="1" source="6" target="2">
                    <mxGeometry relative="1" as="geometry">
                        <mxPoint x="561.1776695296635" y="125.67766952966372" as="sourcePoint"/>
                        <mxPoint x="593.5" y="163" as="targetPoint"/>
                    </mxGeometry>
                </mxCell>
                <mxCell id="12" value="" style="endArrow=none;html=1;rounded=0;exitX=0;exitY=1;exitDx=0;exitDy=0;entryX=0.5;entryY=0;entryDx=0;entryDy=0;fontFamily=Times New Roman;labelBorderColor=#1c1c1c;" edge="1" parent="1" source="7" target="2">
                    <mxGeometry relative="1" as="geometry">
                        <mxPoint x="673.5" y="113" as="sourcePoint"/>
                        <mxPoint x="705.8223304703365" y="150.32233047033628" as="targetPoint"/>
                    </mxGeometry>
                </mxCell>
                <mxCell id="13" value="" style="endArrow=none;html=1;rounded=0;exitX=0.5;exitY=1;exitDx=0;exitDy=0;entryX=0.75;entryY=0;entryDx=0;entryDy=0;fontFamily=Times New Roman;labelBorderColor=#1c1c1c;" edge="1" parent="1" source="8" target="2">
                    <mxGeometry relative="1" as="geometry">
                        <mxPoint x="571.1776695296635" y="135.67766952966372" as="sourcePoint"/>
                        <mxPoint x="603.5" y="173" as="targetPoint"/>
                    </mxGeometry>
                </mxCell>
                <mxCell id="40" style="edgeStyle=none;html=1;entryX=0;entryY=0.5;entryDx=0;entryDy=0;strokeColor=default;fontFamily=Times New Roman;fontSize=20;endArrow=none;endFill=0;labelBorderColor=#1c1c1c;" edge="1" parent="1" source="14" target="29">
                    <mxGeometry relative="1" as="geometry"/>
                </mxCell>
                <mxCell id="54" style="edgeStyle=none;html=1;entryX=0;entryY=0.5;entryDx=0;entryDy=0;strokeColor=default;fontFamily=Times New Roman;fontSize=20;endArrow=none;endFill=0;fontColor=#000000;labelBorderColor=#1c1c1c;" edge="1" parent="1" source="14" target="43">
                    <mxGeometry relative="1" as="geometry">
                        <Array as="points">
                            <mxPoint x="643.5" y="623"/>
                        </Array>
                    </mxGeometry>
                </mxCell>
                <mxCell id="14" value="&lt;h2&gt;Has&lt;/h2&gt;" style="shape=rhombus;perimeter=rhombusPerimeter;whiteSpace=wrap;html=1;align=center;fontFamily=Times New Roman;labelBorderColor=#1c1c1c;" vertex="1" parent="1">
                    <mxGeometry x="583.5" y="313" width="120" height="80" as="geometry"/>
                </mxCell>
                <mxCell id="18" style="edgeStyle=none;html=1;entryX=0;entryY=0.5;entryDx=0;entryDy=0;strokeColor=default;endArrow=none;endFill=0;fontFamily=Times New Roman;labelBorderColor=#1c1c1c;" edge="1" parent="1" source="17" target="14">
                    <mxGeometry relative="1" as="geometry"/>
                </mxCell>
                <mxCell id="56" style="edgeStyle=none;html=1;strokeColor=default;fontFamily=Times New Roman;fontSize=20;endArrow=none;endFill=0;entryX=0.5;entryY=0;entryDx=0;entryDy=0;labelBackgroundColor=default;labelBorderColor=#1c1c1c;" edge="1" parent="1" source="17" target="55">
                    <mxGeometry relative="1" as="geometry">
                        <Array as="points">
                            <mxPoint x="303.5" y="673"/>
                            <mxPoint x="643.5" y="673"/>
                        </Array>
                        <mxPoint x="643.5" y="673" as="targetPoint"/>
                    </mxGeometry>
                </mxCell>
                <mxCell id="17" value="&lt;font style=&quot;font-size: 20px;&quot;&gt;User&lt;/font&gt;" style="whiteSpace=wrap;html=1;align=center;fontFamily=Times New Roman;labelBorderColor=#1c1c1c;" vertex="1" parent="1">
                    <mxGeometry x="223.5" y="323" width="160" height="60" as="geometry"/>
                </mxCell>
                <mxCell id="28" style="edgeStyle=none;html=1;entryX=1;entryY=0;entryDx=0;entryDy=0;strokeColor=default;fontFamily=Times New Roman;fontSize=20;endArrow=none;endFill=0;labelBorderColor=#1c1c1c;" edge="1" parent="1" source="19" target="17">
                    <mxGeometry relative="1" as="geometry"/>
                </mxCell>
                <mxCell id="19" value="#user_id" style="ellipse;whiteSpace=wrap;html=1;align=center;fontStyle=4;fontFamily=Times New Roman;fontSize=20;labelBorderColor=#1c1c1c;" vertex="1" parent="1">
                    <mxGeometry x="373.5" y="223" width="110" height="50" as="geometry"/>
                </mxCell>
                <mxCell id="27" style="edgeStyle=none;html=1;exitX=0.5;exitY=1;exitDx=0;exitDy=0;entryX=0.75;entryY=0;entryDx=0;entryDy=0;strokeColor=default;fontFamily=Times New Roman;fontSize=20;endArrow=none;endFill=0;labelBorderColor=#1c1c1c;" edge="1" parent="1" source="20" target="17">
                    <mxGeometry relative="1" as="geometry"/>
                </mxCell>
                <mxCell id="20" value="user_name" style="ellipse;whiteSpace=wrap;html=1;align=center;fontFamily=Times New Roman;fontSize=20;labelBorderColor=#1c1c1c;" vertex="1" parent="1">
                    <mxGeometry x="313.5" y="173" width="110" height="50" as="geometry"/>
                </mxCell>
                <mxCell id="26" style="edgeStyle=none;html=1;entryX=0.5;entryY=0;entryDx=0;entryDy=0;strokeColor=default;fontFamily=Times New Roman;fontSize=20;endArrow=none;endFill=0;labelBorderColor=#1c1c1c;" edge="1" parent="1" source="21" target="17">
                    <mxGeometry relative="1" as="geometry"/>
                </mxCell>
                <mxCell id="21" value="user_mobile" style="ellipse;whiteSpace=wrap;html=1;align=center;fontFamily=Times New Roman;fontSize=20;labelBorderColor=#1c1c1c;" vertex="1" parent="1">
                    <mxGeometry x="233.5" y="133" width="110" height="50" as="geometry"/>
                </mxCell>
                <mxCell id="25" style="edgeStyle=none;html=1;exitX=0.5;exitY=1;exitDx=0;exitDy=0;entryX=0.25;entryY=0;entryDx=0;entryDy=0;strokeColor=default;fontFamily=Times New Roman;fontSize=20;endArrow=none;endFill=0;labelBorderColor=#1c1c1c;" edge="1" parent="1" source="22" target="17">
                    <mxGeometry relative="1" as="geometry"/>
                </mxCell>
                <mxCell id="22" value="user_email" style="ellipse;whiteSpace=wrap;html=1;align=center;fontFamily=Times New Roman;fontSize=20;labelBorderColor=#1c1c1c;" vertex="1" parent="1">
                    <mxGeometry x="163.5" y="183" width="110" height="50" as="geometry"/>
                </mxCell>
                <mxCell id="24" style="edgeStyle=none;html=1;exitX=1;exitY=1;exitDx=0;exitDy=0;entryX=0;entryY=0;entryDx=0;entryDy=0;strokeColor=default;fontFamily=Times New Roman;fontSize=20;endArrow=none;endFill=0;labelBorderColor=#1c1c1c;" edge="1" parent="1" source="23" target="17">
                    <mxGeometry relative="1" as="geometry"/>
                </mxCell>
                <mxCell id="23" value="user_address" style="ellipse;whiteSpace=wrap;html=1;align=center;fontFamily=Times New Roman;fontSize=20;labelBorderColor=#1c1c1c;" vertex="1" parent="1">
                    <mxGeometry x="103.5" y="233" width="120" height="50" as="geometry"/>
                </mxCell>
                <mxCell id="29" value="&lt;font style=&quot;font-size: 20px;&quot;&gt;Roles&lt;/font&gt;" style="whiteSpace=wrap;html=1;align=center;fontFamily=Times New Roman;labelBorderColor=#1c1c1c;" vertex="1" parent="1">
                    <mxGeometry x="1073.5" y="323" width="160" height="60" as="geometry"/>
                </mxCell>
                <mxCell id="32" style="edgeStyle=none;html=1;exitX=0.5;exitY=1;exitDx=0;exitDy=0;entryX=0.75;entryY=0;entryDx=0;entryDy=0;strokeColor=default;fontFamily=Times New Roman;fontSize=20;endArrow=none;endFill=0;labelBorderColor=#1c1c1c;" edge="1" source="33" target="29" parent="1">
                    <mxGeometry relative="1" as="geometry"/>
                </mxCell>
                <mxCell id="33" value="user_desc" style="ellipse;whiteSpace=wrap;html=1;align=center;fontFamily=Times New Roman;fontSize=20;labelBorderColor=#1c1c1c;" vertex="1" parent="1">
                    <mxGeometry x="1193.5" y="223" width="110" height="50" as="geometry"/>
                </mxCell>
                <mxCell id="34" style="edgeStyle=none;html=1;entryX=0.5;entryY=0;entryDx=0;entryDy=0;strokeColor=default;fontFamily=Times New Roman;fontSize=20;endArrow=none;endFill=0;labelBorderColor=#1c1c1c;" edge="1" source="35" target="29" parent="1">
                    <mxGeometry relative="1" as="geometry"/>
                </mxCell>
                <mxCell id="35" value="role_name" style="ellipse;whiteSpace=wrap;html=1;align=center;fontFamily=Times New Roman;fontSize=20;labelBorderColor=#1c1c1c;" vertex="1" parent="1">
                    <mxGeometry x="1098.5" y="183" width="110" height="50" as="geometry"/>
                </mxCell>
                <mxCell id="36" style="edgeStyle=none;html=1;exitX=0.5;exitY=1;exitDx=0;exitDy=0;entryX=0.25;entryY=0;entryDx=0;entryDy=0;strokeColor=default;fontFamily=Times New Roman;fontSize=20;endArrow=none;endFill=0;labelBorderColor=#1c1c1c;" edge="1" target="29" parent="1">
                    <mxGeometry relative="1" as="geometry">
                        <mxPoint x="1068.5" y="273" as="sourcePoint"/>
                    </mxGeometry>
                </mxCell>
                <mxCell id="41" value="#role_id" style="ellipse;whiteSpace=wrap;html=1;align=center;fontStyle=4;fontFamily=Times New Roman;fontSize=20;labelBorderColor=#1c1c1c;" vertex="1" parent="1">
                    <mxGeometry x="998.5" y="223" width="115" height="50" as="geometry"/>
                </mxCell>
                <mxCell id="43" value="&lt;font style=&quot;font-size: 20px;&quot;&gt;Permission&lt;/font&gt;" style="whiteSpace=wrap;html=1;align=center;fontFamily=Times New Roman;labelBorderColor=#1c1c1c;" vertex="1" parent="1">
                    <mxGeometry x="1078.5" y="593" width="160" height="60" as="geometry"/>
                </mxCell>
                <mxCell id="44" style="edgeStyle=none;html=1;entryX=1;entryY=0;entryDx=0;entryDy=0;strokeColor=default;fontFamily=Times New Roman;fontSize=20;endArrow=none;endFill=0;labelBorderColor=#1c1c1c;" edge="1" source="45" target="43" parent="1">
                    <mxGeometry relative="1" as="geometry"/>
                </mxCell>
                <mxCell id="45" value="#per_id" style="ellipse;whiteSpace=wrap;html=1;align=center;fontStyle=4;fontFamily=Times New Roman;fontSize=20;labelBorderColor=#1c1c1c;" vertex="1" parent="1">
                    <mxGeometry x="1218.5" y="503" width="110" height="50" as="geometry"/>
                </mxCell>
                <mxCell id="46" style="edgeStyle=none;html=1;exitX=0;exitY=1;exitDx=0;exitDy=0;entryX=0.75;entryY=0;entryDx=0;entryDy=0;strokeColor=default;fontFamily=Times New Roman;fontSize=20;endArrow=none;endFill=0;labelBorderColor=#1c1c1c;" edge="1" source="47" target="43" parent="1">
                    <mxGeometry relative="1" as="geometry"/>
                </mxCell>
                <mxCell id="47" value="per_role_id" style="ellipse;whiteSpace=wrap;html=1;align=center;fontFamily=Times New Roman;fontSize=20;labelBorderColor=#1c1c1c;" vertex="1" parent="1">
                    <mxGeometry x="1178.5" y="443" width="110" height="50" as="geometry"/>
                </mxCell>
                <mxCell id="48" style="edgeStyle=none;html=1;entryX=0.5;entryY=0;entryDx=0;entryDy=0;strokeColor=default;fontFamily=Times New Roman;fontSize=20;endArrow=none;endFill=0;labelBorderColor=#1c1c1c;" edge="1" source="49" target="43" parent="1">
                    <mxGeometry relative="1" as="geometry"/>
                </mxCell>
                <mxCell id="49" value="per_module" style="ellipse;whiteSpace=wrap;html=1;align=center;fontFamily=Times New Roman;fontSize=20;labelBorderColor=#1c1c1c;" vertex="1" parent="1">
                    <mxGeometry x="1058.5" y="443" width="110" height="50" as="geometry"/>
                </mxCell>
                <mxCell id="50" style="edgeStyle=none;html=1;exitX=0.5;exitY=1;exitDx=0;exitDy=0;entryX=0.25;entryY=0;entryDx=0;entryDy=0;strokeColor=default;fontFamily=Times New Roman;fontSize=20;endArrow=none;endFill=0;labelBorderColor=#1c1c1c;" edge="1" source="51" target="43" parent="1">
                    <mxGeometry relative="1" as="geometry">
                        <mxPoint x="1063.5" y="543" as="sourcePoint"/>
                    </mxGeometry>
                </mxCell>
                <mxCell id="51" value="per_name" style="ellipse;whiteSpace=wrap;html=1;align=center;fontFamily=Times New Roman;fontSize=20;labelBorderColor=#1c1c1c;" vertex="1" parent="1">
                    <mxGeometry x="998.5" y="493" width="110" height="50" as="geometry"/>
                </mxCell>
                <mxCell id="68" style="edgeStyle=none;html=1;exitX=1;exitY=0.5;exitDx=0;exitDy=0;strokeColor=default;fontFamily=Times New Roman;fontSize=20;endArrow=none;endFill=0;entryX=0.5;entryY=0;entryDx=0;entryDy=0;labelBorderColor=#1c1c1c;" edge="1" parent="1" source="55" target="57">
                    <mxGeometry relative="1" as="geometry">
                        <mxPoint x="1073.5" y="953" as="targetPoint"/>
                        <Array as="points">
                            <mxPoint x="1158.5" y="803"/>
                        </Array>
                    </mxGeometry>
                </mxCell>
                <mxCell id="80" style="edgeStyle=none;html=1;entryX=0.5;entryY=0;entryDx=0;entryDy=0;strokeColor=default;fontFamily=Times New Roman;fontSize=20;endArrow=none;endFill=0;labelBorderColor=#1c1c1c;" edge="1" parent="1" source="55" target="69">
                    <mxGeometry relative="1" as="geometry"/>
                </mxCell>
                <mxCell id="92" style="edgeStyle=none;html=1;strokeColor=default;fontFamily=Times New Roman;fontSize=20;endArrow=none;endFill=0;entryX=0.453;entryY=0;entryDx=0;entryDy=0;entryPerimeter=0;labelBorderColor=#1c1c1c;" edge="1" parent="1" source="55" target="81">
                    <mxGeometry relative="1" as="geometry">
                        <mxPoint x="113.5" y="993" as="targetPoint"/>
                        <Array as="points">
                            <mxPoint x="83.5" y="803"/>
                        </Array>
                    </mxGeometry>
                </mxCell>
                <mxCell id="55" value="&lt;h2&gt;Manage&lt;/h2&gt;" style="shape=rhombus;perimeter=rhombusPerimeter;whiteSpace=wrap;html=1;align=center;fontFamily=Times New Roman;labelBorderColor=#1c1c1c;" vertex="1" parent="1">
                    <mxGeometry x="583.5" y="763" width="120" height="80" as="geometry"/>
                </mxCell>
                <mxCell id="57" value="&lt;font style=&quot;font-size: 20px;&quot;&gt;Restaurant&lt;/font&gt;" style="whiteSpace=wrap;html=1;align=center;fontFamily=Times New Roman;labelBorderColor=#1c1c1c;" vertex="1" parent="1">
                    <mxGeometry x="1078.5" y="1033" width="160" height="60" as="geometry"/>
                </mxCell>
                <mxCell id="67" style="edgeStyle=none;html=1;entryX=1;entryY=0;entryDx=0;entryDy=0;strokeColor=default;fontFamily=Times New Roman;fontSize=20;endArrow=none;endFill=0;labelBorderColor=#1c1c1c;" edge="1" parent="1" source="58" target="57">
                    <mxGeometry relative="1" as="geometry"/>
                </mxCell>
                <mxCell id="58" value="res_type" style="ellipse;whiteSpace=wrap;html=1;align=center;fontFamily=Times New Roman;fontSize=20;labelBorderColor=#1c1c1c;" vertex="1" parent="1">
                    <mxGeometry x="1233.5" y="903" width="110" height="50" as="geometry"/>
                </mxCell>
                <mxCell id="66" style="edgeStyle=none;html=1;entryX=1;entryY=0.25;entryDx=0;entryDy=0;strokeColor=default;fontFamily=Times New Roman;fontSize=20;endArrow=none;endFill=0;labelBorderColor=#1c1c1c;" edge="1" parent="1" source="59" target="57">
                    <mxGeometry relative="1" as="geometry"/>
                </mxCell>
                <mxCell id="59" value="res_desc" style="ellipse;whiteSpace=wrap;html=1;align=center;fontFamily=Times New Roman;fontSize=20;labelBorderColor=#1c1c1c;" vertex="1" parent="1">
                    <mxGeometry x="1343.5" y="943" width="110" height="50" as="geometry"/>
                </mxCell>
                <mxCell id="65" style="edgeStyle=none;html=1;entryX=1;entryY=0.5;entryDx=0;entryDy=0;strokeColor=default;fontFamily=Times New Roman;fontSize=20;endArrow=none;endFill=0;labelBorderColor=#1c1c1c;" edge="1" parent="1" source="60" target="57">
                    <mxGeometry relative="1" as="geometry"/>
                </mxCell>
                <mxCell id="60" value="res_name" style="ellipse;whiteSpace=wrap;html=1;align=center;fontFamily=Times New Roman;fontSize=20;labelBorderColor=#1c1c1c;" vertex="1" parent="1">
                    <mxGeometry x="1383.5" y="1003" width="110" height="50" as="geometry"/>
                </mxCell>
                <mxCell id="64" style="edgeStyle=none;html=1;entryX=1;entryY=0.75;entryDx=0;entryDy=0;strokeColor=default;fontFamily=Times New Roman;fontSize=20;endArrow=none;endFill=0;labelBorderColor=#1c1c1c;" edge="1" parent="1" source="61" target="57">
                    <mxGeometry relative="1" as="geometry"/>
                </mxCell>
                <mxCell id="61" value="res_address" style="ellipse;whiteSpace=wrap;html=1;align=center;fontFamily=Times New Roman;fontSize=20;labelBorderColor=#1c1c1c;" vertex="1" parent="1">
                    <mxGeometry x="1353.5" y="1073" width="110" height="50" as="geometry"/>
                </mxCell>
                <mxCell id="63" style="edgeStyle=none;html=1;entryX=1;entryY=1;entryDx=0;entryDy=0;strokeColor=default;fontFamily=Times New Roman;fontSize=20;endArrow=none;endFill=0;labelBorderColor=#1c1c1c;" edge="1" parent="1" source="62" target="57">
                    <mxGeometry relative="1" as="geometry"/>
                </mxCell>
                <mxCell id="62" value="#res_id" style="ellipse;whiteSpace=wrap;html=1;align=center;fontStyle=4;fontFamily=Times New Roman;fontSize=20;labelBorderColor=#1c1c1c;" vertex="1" parent="1">
                    <mxGeometry x="1253.5" y="1123" width="110" height="50" as="geometry"/>
                </mxCell>
                <mxCell id="97" style="edgeStyle=none;html=1;entryX=0.5;entryY=0;entryDx=0;entryDy=0;strokeColor=default;fontFamily=Times New Roman;fontSize=20;endArrow=none;endFill=0;labelBorderColor=#1c1c1c;" edge="1" parent="1" source="69" target="96">
                    <mxGeometry relative="1" as="geometry"/>
                </mxCell>
                <mxCell id="69" value="&lt;span style=&quot;font-size: 20px;&quot;&gt;Items&lt;/span&gt;" style="whiteSpace=wrap;html=1;align=center;fontFamily=Times New Roman;labelBorderColor=#1c1c1c;" vertex="1" parent="1">
                    <mxGeometry x="563.5" y="1033" width="160" height="60" as="geometry"/>
                </mxCell>
                <mxCell id="70" style="edgeStyle=none;html=1;entryX=1;entryY=0;entryDx=0;entryDy=0;strokeColor=default;fontFamily=Times New Roman;fontSize=20;endArrow=none;endFill=0;labelBorderColor=#1c1c1c;" edge="1" source="71" target="69" parent="1">
                    <mxGeometry relative="1" as="geometry"/>
                </mxCell>
                <mxCell id="71" value="itm_type" style="ellipse;whiteSpace=wrap;html=1;align=center;fontFamily=Times New Roman;fontSize=20;labelBorderColor=#1c1c1c;" vertex="1" parent="1">
                    <mxGeometry x="718.5" y="903" width="110" height="50" as="geometry"/>
                </mxCell>
                <mxCell id="72" style="edgeStyle=none;html=1;entryX=1;entryY=0.25;entryDx=0;entryDy=0;strokeColor=default;fontFamily=Times New Roman;fontSize=20;endArrow=none;endFill=0;labelBorderColor=#1c1c1c;" edge="1" source="73" target="69" parent="1">
                    <mxGeometry relative="1" as="geometry"/>
                </mxCell>
                <mxCell id="73" value="itm_desc" style="ellipse;whiteSpace=wrap;html=1;align=center;fontFamily=Times New Roman;fontSize=20;labelBorderColor=#1c1c1c;" vertex="1" parent="1">
                    <mxGeometry x="828.5" y="943" width="110" height="50" as="geometry"/>
                </mxCell>
                <mxCell id="74" style="edgeStyle=none;html=1;entryX=1;entryY=0.5;entryDx=0;entryDy=0;strokeColor=default;fontFamily=Times New Roman;fontSize=20;endArrow=none;endFill=0;labelBorderColor=#1c1c1c;" edge="1" source="75" target="69" parent="1">
                    <mxGeometry relative="1" as="geometry"/>
                </mxCell>
                <mxCell id="75" value="itm_stk" style="ellipse;whiteSpace=wrap;html=1;align=center;fontFamily=Times New Roman;fontSize=20;labelBorderColor=#1c1c1c;" vertex="1" parent="1">
                    <mxGeometry x="868.5" y="1003" width="110" height="50" as="geometry"/>
                </mxCell>
                <mxCell id="76" style="edgeStyle=none;html=1;entryX=1;entryY=0.75;entryDx=0;entryDy=0;strokeColor=default;fontFamily=Times New Roman;fontSize=20;endArrow=none;endFill=0;labelBorderColor=#1c1c1c;" edge="1" source="77" target="69" parent="1">
                    <mxGeometry relative="1" as="geometry"/>
                </mxCell>
                <mxCell id="77" value="itm_num" style="ellipse;whiteSpace=wrap;html=1;align=center;fontFamily=Times New Roman;fontSize=20;labelBorderColor=#1c1c1c;" vertex="1" parent="1">
                    <mxGeometry x="838.5" y="1073" width="110" height="50" as="geometry"/>
                </mxCell>
                <mxCell id="78" style="edgeStyle=none;html=1;entryX=1;entryY=1;entryDx=0;entryDy=0;strokeColor=default;fontFamily=Times New Roman;fontSize=20;endArrow=none;endFill=0;labelBorderColor=#1c1c1c;" edge="1" source="79" target="69" parent="1">
                    <mxGeometry relative="1" as="geometry"/>
                </mxCell>
                <mxCell id="79" value="#itm_id" style="ellipse;whiteSpace=wrap;html=1;align=center;fontStyle=4;fontFamily=Times New Roman;fontSize=20;labelBorderColor=#1c1c1c;" vertex="1" parent="1">
                    <mxGeometry x="738.5" y="1123" width="110" height="50" as="geometry"/>
                </mxCell>
                <mxCell id="81" value="&lt;font style=&quot;font-size: 20px;&quot;&gt;employee&lt;/font&gt;" style="whiteSpace=wrap;html=1;align=center;fontFamily=Times New Roman;labelBorderColor=#1c1c1c;" vertex="1" parent="1">
                    <mxGeometry x="11" y="1023" width="160" height="60" as="geometry"/>
                </mxCell>
                <mxCell id="82" style="edgeStyle=none;html=1;entryX=1;entryY=0;entryDx=0;entryDy=0;strokeColor=default;fontFamily=Times New Roman;fontSize=20;endArrow=none;endFill=0;labelBorderColor=#1c1c1c;" edge="1" source="83" target="81" parent="1">
                    <mxGeometry relative="1" as="geometry"/>
                </mxCell>
                <mxCell id="83" value="emp_email" style="ellipse;whiteSpace=wrap;html=1;align=center;fontFamily=Times New Roman;fontSize=20;labelBorderColor=#1c1c1c;" vertex="1" parent="1">
                    <mxGeometry x="166" y="893" width="110" height="50" as="geometry"/>
                </mxCell>
                <mxCell id="84" style="edgeStyle=none;html=1;entryX=1;entryY=0.25;entryDx=0;entryDy=0;strokeColor=default;fontFamily=Times New Roman;fontSize=20;endArrow=none;endFill=0;labelBorderColor=#1c1c1c;" edge="1" source="85" target="81" parent="1">
                    <mxGeometry relative="1" as="geometry"/>
                </mxCell>
                <mxCell id="85" value="emp_pass" style="ellipse;whiteSpace=wrap;html=1;align=center;fontFamily=Times New Roman;fontSize=20;labelBorderColor=#1c1c1c;" vertex="1" parent="1">
                    <mxGeometry x="276" y="933" width="110" height="50" as="geometry"/>
                </mxCell>
                <mxCell id="86" style="edgeStyle=none;html=1;entryX=1;entryY=0.5;entryDx=0;entryDy=0;strokeColor=default;fontFamily=Times New Roman;fontSize=20;endArrow=none;endFill=0;labelBorderColor=#1c1c1c;" edge="1" source="87" target="81" parent="1">
                    <mxGeometry relative="1" as="geometry"/>
                </mxCell>
                <mxCell id="87" value="emp_name" style="ellipse;whiteSpace=wrap;html=1;align=center;fontFamily=Times New Roman;fontSize=20;labelBorderColor=#1c1c1c;" vertex="1" parent="1">
                    <mxGeometry x="316" y="993" width="110" height="50" as="geometry"/>
                </mxCell>
                <mxCell id="88" style="edgeStyle=none;html=1;entryX=1;entryY=0.75;entryDx=0;entryDy=0;strokeColor=default;fontFamily=Times New Roman;fontSize=20;endArrow=none;endFill=0;labelBorderColor=#1c1c1c;" edge="1" source="89" target="81" parent="1">
                    <mxGeometry relative="1" as="geometry"/>
                </mxCell>
                <mxCell id="89" value="emp_address" style="ellipse;whiteSpace=wrap;html=1;align=center;fontFamily=Times New Roman;fontSize=20;labelBorderColor=#1c1c1c;" vertex="1" parent="1">
                    <mxGeometry x="303.5" y="1083" width="110" height="50" as="geometry"/>
                </mxCell>
                <mxCell id="90" style="edgeStyle=none;html=1;entryX=1;entryY=1;entryDx=0;entryDy=0;strokeColor=default;fontFamily=Times New Roman;fontSize=20;endArrow=none;endFill=0;labelBorderColor=#1c1c1c;" edge="1" source="91" target="81" parent="1">
                    <mxGeometry relative="1" as="geometry"/>
                </mxCell>
                <mxCell id="91" value="#emp_id" style="ellipse;whiteSpace=wrap;html=1;align=center;fontStyle=4;fontFamily=Times New Roman;fontSize=20;labelBorderColor=#1c1c1c;" vertex="1" parent="1">
                    <mxGeometry x="243.5" y="1153" width="110" height="50" as="geometry"/>
                </mxCell>
                <mxCell id="94" style="edgeStyle=none;html=1;entryX=0.75;entryY=1;entryDx=0;entryDy=0;strokeColor=default;fontFamily=Times New Roman;fontSize=20;endArrow=none;endFill=0;labelBorderColor=#1c1c1c;" edge="1" parent="1" source="93" target="81">
                    <mxGeometry relative="1" as="geometry"/>
                </mxCell>
                <mxCell id="93" value="emp_mobile" style="ellipse;whiteSpace=wrap;html=1;align=center;fontFamily=Times New Roman;fontSize=20;labelBorderColor=#1c1c1c;" vertex="1" parent="1">
                    <mxGeometry x="113.5" y="1203" width="110" height="50" as="geometry"/>
                </mxCell>
                <mxCell id="100" style="edgeStyle=none;html=1;entryX=0;entryY=0.5;entryDx=0;entryDy=0;strokeColor=default;fontFamily=Times New Roman;fontSize=20;endArrow=none;endFill=0;labelBorderColor=#1c1c1c;" edge="1" parent="1" source="96" target="99">
                    <mxGeometry relative="1" as="geometry"/>
                </mxCell>
                <mxCell id="96" value="Relationship" style="shape=rhombus;perimeter=rhombusPerimeter;whiteSpace=wrap;html=1;align=center;fontFamily=Times New Roman;fontSize=20;labelBorderColor=#1c1c1c;" vertex="1" parent="1">
                    <mxGeometry x="578.5" y="1253" width="130" height="80" as="geometry"/>
                </mxCell>
                <mxCell id="99" value="&lt;span style=&quot;font-size: 20px;&quot;&gt;order&lt;/span&gt;" style="whiteSpace=wrap;html=1;align=center;fontFamily=Times New Roman;labelBorderColor=#1c1c1c;" vertex="1" parent="1">
                    <mxGeometry x="1078.5" y="1263" width="160" height="60" as="geometry"/>
                </mxCell>
                <mxCell id="108" style="edgeStyle=none;html=1;entryX=0.75;entryY=1;entryDx=0;entryDy=0;strokeColor=default;fontFamily=Times New Roman;fontSize=20;endArrow=none;endFill=0;labelBorderColor=#1c1c1c;" edge="1" parent="1" source="101" target="99">
                    <mxGeometry relative="1" as="geometry"/>
                </mxCell>
                <mxCell id="101" value="#ord_id" style="ellipse;whiteSpace=wrap;html=1;align=center;fontStyle=4;fontFamily=Times New Roman;fontSize=20;labelBorderColor=#1c1c1c;" vertex="1" parent="1">
                    <mxGeometry x="1193.5" y="1373" width="110" height="50" as="geometry"/>
                </mxCell>
                <mxCell id="105" style="edgeStyle=none;html=1;entryX=1;entryY=0.75;entryDx=0;entryDy=0;strokeColor=default;fontFamily=Times New Roman;fontSize=20;endArrow=none;endFill=0;labelBorderColor=#1c1c1c;" edge="1" parent="1" source="102" target="99">
                    <mxGeometry relative="1" as="geometry"/>
                </mxCell>
                <mxCell id="102" value="ord_type" style="ellipse;whiteSpace=wrap;html=1;align=center;fontFamily=Times New Roman;fontSize=20;labelBorderColor=#1c1c1c;" vertex="1" parent="1">
                    <mxGeometry x="1303.5" y="1323" width="110" height="50" as="geometry"/>
                </mxCell>
                <mxCell id="104" style="edgeStyle=none;html=1;entryX=1;entryY=0.25;entryDx=0;entryDy=0;strokeColor=default;fontFamily=Times New Roman;fontSize=20;endArrow=none;endFill=0;labelBorderColor=#1c1c1c;" edge="1" parent="1" source="103" target="99">
                    <mxGeometry relative="1" as="geometry"/>
                </mxCell>
                <mxCell id="103" value="res_address" style="ellipse;whiteSpace=wrap;html=1;align=center;fontFamily=Times New Roman;fontSize=20;labelBorderColor=#1c1c1c;" vertex="1" parent="1">
                    <mxGeometry x="1288.5" y="1243" width="110" height="50" as="geometry"/>
                </mxCell>
            </root>
        </mxGraphModel>
    </diagram>
</mxfile>
